<svg width="91" height="91" viewBox="0 0 91 91" fill="none" xmlns="http://www.w3.org/2000/svg">
<g filter="url(#filter0_d_938_95674)">
<path d="M4.00837 41.0156C3.85212 31.6406 5.92243 22.7344 10.2193 14.2969C14.5162 5.85938 21.3131 1.09375 30.6099 0C39.8287 1.17188 46.7037 5.9375 51.2349 14.2969C55.7662 22.6562 57.9146 31.5625 57.6802 41.0156C57.8365 50.4688 55.6881 59.4531 51.2349 67.9688C46.7818 76.4062 39.9068 81.1719 30.6099 82.2656C21.2349 81.1719 14.399 76.3672 10.1021 67.8516C5.88337 59.2578 3.85212 50.3125 4.00837 41.0156ZM12.5631 41.0156C12.5631 45.625 13.149 50.1953 14.3209 54.7266C15.4927 59.1797 17.4068 63.2422 20.0631 66.9141C22.7193 70.5859 26.2349 72.6562 30.6099 73.125C34.8287 72.6562 38.2662 70.5859 40.9224 66.9141C43.5787 63.2422 45.4927 59.1797 46.6646 54.7266C47.8365 50.1953 48.4615 45.625 48.5396 41.0156C48.4615 36.3281 47.8365 31.7578 46.6646 27.3047C45.4927 22.8516 43.5787 18.75 40.9224 15C38.2662 11.25 34.8287 9.14062 30.6099 8.67188C26.2349 9.14062 22.7193 11.25 20.0631 15C17.4068 18.75 15.4927 22.8516 14.3209 27.3047C13.149 31.7578 12.5631 36.3281 12.5631 41.0156Z" fill="#F7CC2E"/>
<path d="M79.1959 3.39844C80.524 2.38281 82.0084 1.99219 83.649 2.22656C85.3677 3.00781 86.3052 4.41406 86.4615 6.44531V76.1719C85.9927 78.9844 84.5474 80.5469 82.1256 80.8594C79.6256 80.4688 78.3365 78.9062 78.2584 76.1719V16.9922C78.1021 18.9453 77.3209 20.7031 75.9146 22.2656C73.4927 25.3906 70.9537 28.1641 68.2974 30.5859C66.2662 32.2266 64.3912 32.0312 62.6724 30C61.8912 27.9688 62.0865 26.0156 63.2584 24.1406C65.7584 21.25 68.2193 18.4766 70.6412 15.8203C73.6099 11.9141 76.4615 7.77344 79.1959 3.39844Z" fill="#F7CC2E"/>
</g>
<defs>
<filter id="filter0_d_938_95674" x="0" y="0" width="90.4615" height="90.2656" filterUnits="userSpaceOnUse" color-interpolation-filters="sRGB">
<feFlood flood-opacity="0" result="BackgroundImageFix"/>
<feColorMatrix in="SourceAlpha" type="matrix" values="0 0 0 0 0 0 0 0 0 0 0 0 0 0 0 0 0 0 127 0" result="hardAlpha"/>
<feOffset dy="4"/>
<feGaussianBlur stdDeviation="2"/>
<feComposite in2="hardAlpha" operator="out"/>
<feColorMatrix type="matrix" values="0 0 0 0 0 0 0 0 0 0 0 0 0 0 0 0 0 0 0.25 0"/>
<feBlend mode="normal" in2="BackgroundImageFix" result="effect1_dropShadow_938_95674"/>
<feBlend mode="normal" in="SourceGraphic" in2="effect1_dropShadow_938_95674" result="shape"/>
</filter>
</defs>
</svg>
