<?xml version="1.0" standalone="no"?>
<!DOCTYPE svg PUBLIC "-//W3C//DTD SVG 20010904//EN"
 "http://www.w3.org/TR/2001/REC-SVG-20010904/DTD/svg10.dtd">
<svg version="1.0" xmlns="http://www.w3.org/2000/svg"
 width="257.000000pt" height="257.000000pt" viewBox="0 0 257.000000 257.000000"
 preserveAspectRatio="xMidYMid meet">
<metadata>
Created by potrace 1.14, written by Peter Selinger 2001-2017
</metadata>
<g transform="translate(0.000000,257.000000) scale(0.100000,-0.100000)"
fill="#000000" stroke="none">
<path d="M1178 2401 c-112 -36 -173 -184 -119 -290 24 -45 81 -98 119 -108 51
-15 205 -8 238 10 45 23 103 94 110 134 12 62 -1 132 -32 175 -44 62 -92 83
-199 85 -49 1 -102 -2 -117 -6z"/>
<path d="M124 1976 c-17 -8 -47 -30 -66 -50 -89 -92 -70 -247 38 -316 45 -28
54 -30 145 -30 111 0 140 8 187 53 86 82 93 202 16 287 -52 58 -87 70 -196 70
-55 -1 -106 -6 -124 -14z"/>
<path d="M2193 1974 c-67 -34 -123 -120 -123 -189 0 -71 62 -164 127 -192 20
-8 71 -13 131 -13 92 0 101 2 146 30 55 35 96 110 96 176 0 58 -42 136 -92
170 -38 27 -49 29 -147 32 -83 2 -113 -1 -138 -14z"/>
<path d="M1045 1834 c-188 -18 -290 -52 -419 -138 -199 -133 -329 -312 -371
-514 -30 -141 -16 -332 36 -472 87 -236 325 -447 584 -516 62 -17 108 -19 400
-19 379 1 416 7 571 89 230 122 367 291 436 534 29 102 31 314 4 411 -66 240
-245 443 -489 556 -118 54 -200 67 -472 70 -132 2 -258 1 -280 -1z m321 -281
c-24 -122 -46 -348 -46 -474 l0 -70 205 3 205 3 0 -107 0 -108 -296 0 -297 0
7 43 c23 137 37 299 43 505 l6 232 89 0 90 0 -6 -27z"/>
</g>
</svg>
